<mxfile host="app.diagrams.net" modified="2021-05-12T18:10:59.322Z" agent="5.0 (Windows NT 10.0; Win64; x64) AppleWebKit/537.36 (KHTML, like Gecko) Chrome/90.0.4430.212 Safari/537.36" etag="4ko23VhlW7Q1OOO6fMgX" version="14.6.11" type="github">
  <diagram id="TSc8M2aQanpHi99RWJcm" name="Page-1">
    <mxGraphModel dx="428" dy="580" grid="0" gridSize="10" guides="1" tooltips="1" connect="1" arrows="1" fold="1" page="1" pageScale="1" pageWidth="850" pageHeight="1100" math="0" shadow="0">
      <root>
        <mxCell id="0" />
        <mxCell id="1" parent="0" />
        <mxCell id="VYypd768on3l88U3lYdz-2" value="" style="rounded=1;arcSize=10;dashed=0;fillColor=none;gradientColor=none;strokeWidth=2;" parent="1" vertex="1">
          <mxGeometry x="1167" y="41" width="518" height="368" as="geometry" />
        </mxCell>
        <mxCell id="VYypd768on3l88U3lYdz-3" value="" style="dashed=0;html=1;shape=mxgraph.aws3.cloud;fillColor=#F58536;gradientColor=none;dashed=0;" parent="1" vertex="1">
          <mxGeometry x="1185" y="23" width="51.82" height="38.35" as="geometry" />
        </mxCell>
        <mxCell id="VYypd768on3l88U3lYdz-4" value="US East (N. Virginia) [us-east-1]" style="text;whiteSpace=wrap;html=1;" parent="1" vertex="1">
          <mxGeometry x="1240.822156862745" y="38.76506849315067" width="219.196862745098" height="28.153424657534252" as="geometry" />
        </mxCell>
        <mxCell id="VYypd768on3l88U3lYdz-10" style="edgeStyle=orthogonalEdgeStyle;rounded=0;orthogonalLoop=1;jettySize=auto;html=1;entryX=0;entryY=0.5;entryDx=0;entryDy=0;entryPerimeter=0;" parent="1" source="VYypd768on3l88U3lYdz-14" target="VYypd768on3l88U3lYdz-20" edge="1">
          <mxGeometry relative="1" as="geometry" />
        </mxCell>
        <mxCell id="VYypd768on3l88U3lYdz-11" style="edgeStyle=orthogonalEdgeStyle;rounded=0;orthogonalLoop=1;jettySize=auto;html=1;entryX=0;entryY=0.5;entryDx=0;entryDy=0;entryPerimeter=0;" parent="1" source="VYypd768on3l88U3lYdz-14" edge="1">
          <mxGeometry relative="1" as="geometry">
            <Array as="points">
              <mxPoint x="1331" y="215" />
              <mxPoint x="1331" y="93" />
            </Array>
            <mxPoint x="1391" y="93" as="targetPoint" />
          </mxGeometry>
        </mxCell>
        <mxCell id="VYypd768on3l88U3lYdz-12" style="edgeStyle=orthogonalEdgeStyle;rounded=0;orthogonalLoop=1;jettySize=auto;html=1;entryX=0;entryY=0.5;entryDx=0;entryDy=0;entryPerimeter=0;" parent="1" source="VYypd768on3l88U3lYdz-14" target="VYypd768on3l88U3lYdz-25" edge="1">
          <mxGeometry relative="1" as="geometry" />
        </mxCell>
        <mxCell id="VYypd768on3l88U3lYdz-14" value="Amazon API Gateway" style="outlineConnect=0;dashed=0;verticalLabelPosition=bottom;verticalAlign=top;align=center;html=1;shape=mxgraph.aws3.api_gateway;fillColor=#D9A741;gradientColor=none;" parent="1" vertex="1">
          <mxGeometry x="1212.9966666666667" y="178.9709589041095" width="58.72062745098039" height="71.38904109589042" as="geometry" />
        </mxCell>
        <mxCell id="VYypd768on3l88U3lYdz-16" style="edgeStyle=orthogonalEdgeStyle;rounded=0;orthogonalLoop=1;jettySize=auto;html=1;exitX=1;exitY=0.5;exitDx=0;exitDy=0;" parent="1" source="2CitvJwi-ZNsvcx_Y5Ye-1" target="VYypd768on3l88U3lYdz-14" edge="1">
          <mxGeometry relative="1" as="geometry">
            <mxPoint x="1124.2394117647054" y="214.70000000000005" as="sourcePoint" />
          </mxGeometry>
        </mxCell>
        <mxCell id="VYypd768on3l88U3lYdz-19" style="edgeStyle=orthogonalEdgeStyle;rounded=0;orthogonalLoop=1;jettySize=auto;html=1;entryX=0;entryY=0.5;entryDx=0;entryDy=0;entryPerimeter=0;" parent="1" source="VYypd768on3l88U3lYdz-20" target="VYypd768on3l88U3lYdz-23" edge="1">
          <mxGeometry relative="1" as="geometry">
            <mxPoint x="1580.9974509803924" y="321.00219178082205" as="targetPoint" />
          </mxGeometry>
        </mxCell>
        <mxCell id="VYypd768on3l88U3lYdz-20" value="ECS - Usuarios / Mascotas&lt;br&gt;- node.js" style="outlineConnect=0;dashed=0;verticalLabelPosition=bottom;verticalAlign=top;align=center;html=1;shape=mxgraph.aws3.ecs;fillColor=#F58534;gradientColor=none;" parent="1" vertex="1">
          <mxGeometry x="1391" y="291.9999999999999" width="61.87" height="58" as="geometry" />
        </mxCell>
        <mxCell id="VYypd768on3l88U3lYdz-21" style="edgeStyle=orthogonalEdgeStyle;rounded=0;orthogonalLoop=1;jettySize=auto;html=1;entryX=0;entryY=0.5;entryDx=0;entryDy=0;entryPerimeter=0;" parent="1" target="VYypd768on3l88U3lYdz-23" edge="1">
          <mxGeometry relative="1" as="geometry">
            <mxPoint x="1450.23" y="93" as="sourcePoint" />
            <Array as="points">
              <mxPoint x="1526" y="93" />
              <mxPoint x="1526" y="215" />
            </Array>
          </mxGeometry>
        </mxCell>
        <mxCell id="VYypd768on3l88U3lYdz-23" value="DynamoDB - &lt;br&gt;Adopcion/ Seguimiento&amp;nbsp;" style="outlineConnect=0;dashed=0;verticalLabelPosition=bottom;verticalAlign=top;align=center;html=1;shape=mxgraph.aws3.dynamo_db;fillColor=#2E73B8;gradientColor=none;" parent="1" vertex="1">
          <mxGeometry x="1601.9974509803924" y="189.52794520547943" width="44.68398431372548" height="50.27397260273973" as="geometry" />
        </mxCell>
        <mxCell id="VYypd768on3l88U3lYdz-24" style="edgeStyle=orthogonalEdgeStyle;rounded=0;orthogonalLoop=1;jettySize=auto;html=1;entryX=0;entryY=0.5;entryDx=0;entryDy=0;entryPerimeter=0;" parent="1" source="VYypd768on3l88U3lYdz-25" target="VYypd768on3l88U3lYdz-23" edge="1">
          <mxGeometry relative="1" as="geometry">
            <mxPoint x="1575.6674509803925" y="214.3649315068493" as="targetPoint" />
          </mxGeometry>
        </mxCell>
        <mxCell id="VYypd768on3l88U3lYdz-25" value="Lambda - Seguimiento a Adoptados&lt;br&gt;- node&amp;nbsp;" style="outlineConnect=0;dashed=0;verticalLabelPosition=bottom;verticalAlign=top;align=center;html=1;shape=mxgraph.aws3.ec2;fillColor=#F58534;gradientColor=none;dashPattern=1 1;" parent="1" vertex="1">
          <mxGeometry x="1393.6399999999999" y="178.36" width="59.23" height="72" as="geometry" />
        </mxCell>
        <mxCell id="2CitvJwi-ZNsvcx_Y5Ye-1" value="Heroku - HTML5" style="shape=image;html=1;verticalAlign=top;verticalLabelPosition=bottom;labelBackgroundColor=#ffffff;imageAspect=0;aspect=fixed;image=https://cdn1.iconfinder.com/data/icons/simple-icons/128/heroku-128-black.png" parent="1" vertex="1">
          <mxGeometry x="1077" y="183.22" width="62.28" height="62.28" as="geometry" />
        </mxCell>
        <mxCell id="2CitvJwi-ZNsvcx_Y5Ye-4" value="Beanstalk - Proceso Adopci贸n&lt;br&gt;- Node Js" style="outlineConnect=0;dashed=0;verticalLabelPosition=bottom;verticalAlign=top;align=center;html=1;shape=mxgraph.aws3.elastic_beanstalk;fillColor=#F58534;gradientColor=none;" parent="1" vertex="1">
          <mxGeometry x="1396.18" y="59" width="51.5" height="75" as="geometry" />
        </mxCell>
        <mxCell id="VYypd768on3l88U3lYdz-30" value="Usuario [Descripci贸n]" style="html=1;verticalLabelPosition=bottom;align=center;labelBackgroundColor=#ffffff;verticalAlign=top;strokeWidth=2;strokeColor=#0080F0;shadow=0;dashed=0;shape=mxgraph.ios7.icons.user;" parent="1" vertex="1">
          <mxGeometry x="879" y="222" width="62" height="62" as="geometry" />
        </mxCell>
        <mxCell id="VYypd768on3l88U3lYdz-31" style="edgeStyle=orthogonalEdgeStyle;rounded=0;orthogonalLoop=1;jettySize=auto;html=1;entryX=0;entryY=0.5;entryDx=0;entryDy=0;" parent="1" source="VYypd768on3l88U3lYdz-32" target="2CitvJwi-ZNsvcx_Y5Ye-1" edge="1">
          <mxGeometry relative="1" as="geometry">
            <mxPoint x="1069" y="215" as="targetPoint" />
            <Array as="points">
              <mxPoint x="1045" y="199" />
              <mxPoint x="1045" y="214" />
            </Array>
          </mxGeometry>
        </mxCell>
        <mxCell id="VYypd768on3l88U3lYdz-32" value="" style="outlineConnect=0;dashed=0;verticalLabelPosition=bottom;verticalAlign=top;align=center;html=1;shape=mxgraph.aws3.mobile_client;fillColor=#D2D3D3;gradientColor=none;dashPattern=1 1;" parent="1" vertex="1">
          <mxGeometry x="953" y="167" width="40.5" height="63" as="geometry" />
        </mxCell>
        <mxCell id="VYypd768on3l88U3lYdz-33" style="edgeStyle=orthogonalEdgeStyle;rounded=0;orthogonalLoop=1;jettySize=auto;html=1;entryX=0;entryY=0.5;entryDx=0;entryDy=0;" parent="1" source="VYypd768on3l88U3lYdz-34" target="2CitvJwi-ZNsvcx_Y5Ye-1" edge="1">
          <mxGeometry relative="1" as="geometry">
            <mxPoint x="1038" y="162" as="targetPoint" />
            <Array as="points">
              <mxPoint x="1044" y="259" />
              <mxPoint x="1044" y="214" />
            </Array>
          </mxGeometry>
        </mxCell>
        <mxCell id="VYypd768on3l88U3lYdz-34" value="" style="verticalLabelPosition=bottom;html=1;verticalAlign=top;align=center;strokeColor=none;fillColor=#00BEF2;shape=mxgraph.azure.laptop;pointerEvents=1;dashed=1;dashPattern=1 1;" parent="1" vertex="1">
          <mxGeometry x="946" y="241" width="60" height="36" as="geometry" />
        </mxCell>
        <mxCell id="VYypd768on3l88U3lYdz-35" value="IBM Cloud - Dalas" style="shape=mxgraph.ibm.box;prType=cloud;fontStyle=0;verticalAlign=top;align=left;spacingLeft=32;spacingTop=4;fillColor=none;rounded=0;whiteSpace=wrap;html=1;strokeColor=#4376BB;strokeWidth=3;dashed=0;container=1;spacing=-4;collapsible=0;expand=0;recursiveResize=0;" parent="1" vertex="1">
          <mxGeometry x="1706" y="49" width="220" height="360" as="geometry" />
        </mxCell>
        <mxCell id="VYypd768on3l88U3lYdz-36" value="functions - Validaci贸n documentaci贸n&lt;br&gt;- node.js" style="aspect=fixed;perimeter=ellipsePerimeter;html=1;align=center;shadow=0;dashed=0;fontColor=#4277BB;labelBackgroundColor=#ffffff;fontSize=12;spacingTop=3;image;image=img/lib/ibm/miscellaneous/openwhisk.svg;dashPattern=1 1;" parent="VYypd768on3l88U3lYdz-35" vertex="1">
          <mxGeometry x="80" y="95" width="60" height="60" as="geometry" />
        </mxCell>
        <mxCell id="VYypd768on3l88U3lYdz-37" value="cloudant - &lt;br&gt;Documentaci贸n" style="aspect=fixed;perimeter=ellipsePerimeter;html=1;align=center;shadow=0;dashed=0;fontColor=#4277BB;labelBackgroundColor=#ffffff;fontSize=12;spacingTop=3;image;image=img/lib/ibm/miscellaneous/cloudant.svg;dashPattern=1 1;" parent="VYypd768on3l88U3lYdz-35" vertex="1">
          <mxGeometry x="80" y="239" width="60" height="60" as="geometry" />
        </mxCell>
        <mxCell id="VYypd768on3l88U3lYdz-38" style="edgeStyle=orthogonalEdgeStyle;rounded=0;orthogonalLoop=1;jettySize=auto;html=1;" parent="VYypd768on3l88U3lYdz-35" source="VYypd768on3l88U3lYdz-36" target="VYypd768on3l88U3lYdz-37" edge="1">
          <mxGeometry relative="1" as="geometry" />
        </mxCell>
        <mxCell id="VYypd768on3l88U3lYdz-39" style="edgeStyle=orthogonalEdgeStyle;rounded=0;orthogonalLoop=1;jettySize=auto;html=1;entryX=0;entryY=0.5;entryDx=0;entryDy=0;" parent="1" target="VYypd768on3l88U3lYdz-36" edge="1">
          <mxGeometry relative="1" as="geometry">
            <Array as="points">
              <mxPoint x="1525" y="97" />
              <mxPoint x="1525" y="175" />
            </Array>
            <mxPoint x="1450.23" y="97" as="sourcePoint" />
          </mxGeometry>
        </mxCell>
        <mxCell id="VYypd768on3l88U3lYdz-40" style="edgeStyle=orthogonalEdgeStyle;rounded=0;orthogonalLoop=1;jettySize=auto;html=1;" parent="1" source="VYypd768on3l88U3lYdz-25" target="VYypd768on3l88U3lYdz-36" edge="1">
          <mxGeometry relative="1" as="geometry">
            <Array as="points">
              <mxPoint x="1524" y="218" />
              <mxPoint x="1524" y="175" />
            </Array>
          </mxGeometry>
        </mxCell>
      </root>
    </mxGraphModel>
  </diagram>
</mxfile>
